<?xml version="1.0" encoding="utf-8"?>

<svg width="827" height="1714" xmlns="http://www.w3.org/2000/svg" xmlns:xlink="http://www.w3.org/1999/xlink" xml:space="preserve" overflow="hidden">

<g transform="translate(-3395 -306)"><path d="M3678.32 1851.04C3608.27 1817.32 3573.91 1793.73 3545.47 1789.14 3517.03 1784.56 3544.33 1827.83 3507.68 1823.53 3471.03 1819.23 3413.29 1818.28 3401.17 1722.09 3389.05 1625.91 3421.4 1340.99 3434.95 1246.42 3448.5 1151.86 3461.68 1183.77 3482.48 1154.73 3503.29 1125.69 3536.79 1093.31 3559.79 1072.2 3582.79 1051.1 3610.66 1038.97 3620.49 1028.08 3630.32 1017.19 3612.95 1017.86 3618.77 1006.87 3624.59 995.888 3645.68 981.465 3655.42 962.171 3665.15 942.877 3673.17 910.784 3677.18 891.108 3681.19 871.431 3673.17 866.942 3679.47 844.114 3685.77 821.286 3708.86 774.483 3714.97 754.139 3721.08 733.794 3705.62 730.642 3716.12 722.045 3726.62 713.449 3764.7 720.135 3777.96 702.56 3791.23 684.986 3778.25 649.263 3795.71 616.597 3813.18 583.93 3852.31 527.767 3882.76 506.563 3913.2 485.359 3955.48 515.064 3978.39 489.37 4001.29 463.676 4000.34 382.202 4020.19 352.401 4040.04 322.6 4074.21 315.054 4097.49 310.565 4120.78 306.076 4142.35 316.678 4159.91 325.465 4177.47 334.252 4193.12 347.911 4202.86 363.289 4212.59 378.667 4217.94 398.343 4218.32 417.733 4218.7 437.123 4219.75 458.137 4205.15 479.628 4190.55 501.118 4173.66 525.666 4130.71 546.679 4087.76 567.693 3989.36 591.285 3947.46 605.708 3905.57 620.131 3890.49 621.755 3879.32 633.216 3868.15 644.678 3876.74 661.202 3880.46 674.479 3884.19 687.755 3896.31 691.289 3901.65 712.876 3907 734.463 3921.6 774.101 3912.53 803.998 3903.47 833.894 3860.23 863.409 3847.25 892.254 3834.27 921.1 3829.12 952.62 3834.65 977.072 3840.19 1001.52 3863.09 1021.58 3880.46 1038.97 3897.83 1056.35 3924.18 1072.78 3938.87 1081.37 3953.57 1089.97 3955.19 1084.43 3968.65 1090.54 3982.11 1096.66 4012.93 1085.48 4019.62 1118.05 4026.3 1150.62 4006.16 1251.3 4008.74 1285.97 4011.31 1320.64 4023.15 1314.91 4035.08 1326.08 4047.01 1337.26 4064.85 1340.03 4080.32 1353.02 4095.78 1366.01 4118.97 1385.21 4127.84 1404.03 4136.72 1422.84 4140.35 1437.36 4133.57 1465.92 4126.79 1494.48 4102.74 1541.76 4087.19 1575.38 4071.63 1609 4049.01 1648.55 4040.23 1667.65 4031.45 1686.75 4033.84 1684.84 4034.5 1690 4035.17 1695.16 4038.51 1696.11 4044.24 1698.59 4049.97 1701.08 4052.06 1694.49 4068.86 1704.9 4085.66 1715.31 4138.15 1733.74 4145.02 1761.06 4151.9 1788.38 4126.79 1828.3 4110.09 1868.8 4093.39 1909.3 4066 1981.99 4044.81 2004.05 4023.62 2026.12 4026.87 2016.95 3965.79 1991.45 3904.71 1965.94 3748.38 1884.75 3678.32 1851.04Z" stroke="#FFFFFF" stroke-width="6.875" stroke-miterlimit="8" fill="none" fill-rule="evenodd"/></g></svg>